<?xml version="1.0" standalone="no"?><!DOCTYPE svg PUBLIC "-//W3C//DTD SVG 1.1//EN" "http://www.w3.org/Graphics/SVG/1.1/DTD/svg11.dtd"><svg t="1597330297544" class="icon" viewBox="0 0 1024 1024" version="1.1" xmlns="http://www.w3.org/2000/svg" p-id="2457" xmlns:xlink="http://www.w3.org/1999/xlink" width="22" height="22"><defs><style type="text/css"></style></defs><path d="M517.9648 107.21792c-2.07872-4.18816-8.2432-4.18816-10.3168 0L387.65056 348.7744a40.96 40.96 0 0 1-30.83264 22.31808l-268.26752 38.7072c-4.6336 0.6656-6.4 6.08256-3.2 9.18528l194.11968 188.02688a40.96 40.96 0 0 1 11.86816 36.38272l-45.81376 265.66656c-0.7424 4.21376 4.1216 7.7312 8.40704 5.49376l239.90784-125.35296a40.96 40.96 0 0 1 37.9392 0l239.8976 125.35296c4.24448 2.21184 9.1392-1.32096 8.39168-5.63712l-45.78816-265.5232a40.96 40.96 0 0 1 11.86304-36.38272l194.11968-188.02688c3.20512-3.10272 1.4336-8.51968-3.2256-9.1904l-268.2368-38.7072a40.96 40.96 0 0 1-30.83776-22.31296l-119.99744-241.55136z m183.80288 185.856l246.9376 35.6352c71.8848 10.32192 100.7616 98.54464 48.55296 149.11488l-178.57536 172.96896 42.10176 244.14208c12.416 71.3984-62.85312 125.7472-127.04256 92.22144l-220.93312-115.44064-220.9792 115.46112c-64.27136 33.4848-139.5712-20.8896-127.01184-92.1856l42.112-244.1984L28.35456 477.824C-23.85408 427.25376 5.02272 339.03104 76.88192 328.704l246.96832-35.6352 110.4128-222.2592c32.1536-64.88064 124.91264-64.89088 157.07648-0.0256l110.42816 222.2848z" fill="#949494" p-id="2458"></path><path d="M675.72224 673.9968a30.72 30.72 0 1 1-60.55424 10.3936l-16.75776-97.63328a30.72 30.72 0 0 1 8.89856-27.24864l68.23936-66.16576a30.72 30.72 0 1 1 42.76736 44.11392l-56.60672 54.8864 14.01344 81.65376z" fill="#949494" p-id="2459"></path></svg>